<svg id="Capa_1" enable-background="new 0 0 512 512" height="512" viewBox="0 0 512 512" width="512" xmlns="http://www.w3.org/2000/svg"><g><g><path d="m128.636 362.74-.908-.055c-7.128-.432-14.002-1.741-20.53-3.796l-45.624 78.997c-4.18 7.237-1.637 16.493 5.653 20.582l44.91 25.187c7.164 4.018 16.229 1.53 20.336-5.582l66.61-115.333z"/><g><path d="m381.991 28.656-135.527 82.972v238.94l135.698 80.615c10.002 5.942 22.671-1.264 22.671-12.895v-376.84c0-11.721-12.844-18.913-22.842-12.792z"/><g><path d="m48.53 280.042v-100.761c0-5.774.625-11.399 1.782-16.826h-21.816c-15.738 0-28.496 12.754-28.496 28.487v77.439c0 15.733 12.758 28.487 28.496 28.487h21.808c-1.153-5.442-1.774-11.067-1.774-16.826z"/><path d="m216.454 332.74h-86.908c-28.17-1.708-51.006-24.537-51.006-52.698v-100.76c0-28.161 22.836-50.989 51.006-49.28h86.908z"/></g></g></g><g><path d="m470.72 352.291c-3.84 0-7.68-1.465-10.61-4.394l-30.269-30.259c-5.86-5.857-5.86-15.355 0-21.213 5.859-5.857 15.361-5.857 21.22 0l30.269 30.259c5.86 5.857 5.86 15.355 0 21.213-2.93 2.929-6.77 4.394-10.61 4.394z"/><path d="m440.45 172.291c-3.841 0-7.68-1.464-10.61-4.394-5.86-5.857-5.86-15.355 0-21.213l30.269-30.259c5.86-5.858 15.36-5.858 21.22 0 5.859 5.857 5.859 15.355 0 21.213l-30.269 30.259c-2.929 2.929-6.77 4.394-10.61 4.394z"/><path d="m496.995 247.161h-42.807c-8.287 0-15.005-6.716-15.005-15s6.718-15 15.005-15h42.807c8.287 0 15.005 6.716 15.005 15s-6.718 15-15.005 15z"/></g></g></svg>